<svg width="20" height="20" viewBox="0 0 20 20" fill="none" xmlns="http://www.w3.org/2000/svg">
<path fill-rule="evenodd" clip-rule="evenodd" d="M0.56556 0.0993083C0.911342 -0.0674749 1.32208 -0.0215812 1.62252 0.217408L6.6835 4.24318L12.2394 0.192001C12.5905 -0.0639885 13.0667 -0.0639885 13.4177 0.192001L19.5892 4.692C19.8473 4.88024 20 5.18051 20 5.50001V19C20 19.3764 19.7887 19.7208 19.4532 19.8914C19.1178 20.062 18.7149 20.0298 18.4108 19.808L12.8286 15.7376L7.24632 19.808C6.88271 20.0731 6.38679 20.0627 6.03462 19.7826L0.377476 15.2826C0.138973 15.0929 0 14.8048 0 14.5V1.00001C0 0.616105 0.219777 0.266091 0.56556 0.0993083ZM11.8281 2.96711L7.64062 6.0205V17.0453L11.8281 13.9919V2.96711ZM13.8281 2.96646V13.9912L18 17.0332V6.00845L13.8281 2.96646ZM2 3.07325L5.64062 5.9692V16.9136L2 14.0177V3.07325Z" fill="#3B3E5B"/>
</svg>
